<?xml version="1.0" encoding="UTF-8" standalone="no"?>
<!DOCTYPE svg PUBLIC "-//W3C//DTD SVG 1.1//EN" "http://www.w3.org/Graphics/SVG/1.1/DTD/svg11.dtd">
<svg width="100%" height="100%" viewBox="0 0 440 239" version="1.1" xmlns="http://www.w3.org/2000/svg" xmlns:xlink="http://www.w3.org/1999/xlink" xml:space="preserve" xmlns:serif="http://www.serif.com/" style="fill-rule:evenodd;clip-rule:evenodd;stroke-linejoin:round;stroke-miterlimit:2;">
    <g transform="matrix(1,0,0,1,-650.659693,-423.980829)">
        <g id="Logo-Vectorial" serif:id="Logo Vectorial">
            <path d="M916.541,442.267L975.598,442.267L975.33,572.981L993.99,549.002L993.776,442.374L1042.637,442.267C1056.172,442.116 1062.863,447.815 1067.157,456.172L1087.852,455.955C1080.05,438.468 1066.032,423.952 1041.294,423.981L894.596,423.981C902.725,428.748 911.277,434.635 916.541,442.267Z" style="fill:rgb(71,195,192);"/>
            <path id="P1-main" d="M707.152,643.763C712.274,642.963 715.612,635.961 715.677,631.723L715.417,467.3L754.662,467.247C765.206,467.641 768.975,471.087 772.477,473.963C774.89,475.944 777.026,478.016 779.344,480.63C790.077,492.734 788.982,517.091 779.543,527.325C774.415,532.884 767.146,540.213 755.729,540.761L733.42,541.227L733.004,566.484L757.856,566.484C771.757,566.602 776.588,562.287 783.83,557.727C795.534,549.097 802.868,540.876 807.476,532.911C815.682,513.866 816.478,495.203 807.476,477.044C803.966,467.664 796.93,458.973 785.259,451.189C777.407,445.639 767.454,442.033 757.778,441.833L714.649,441.881L718.41,424.99L755.256,425.02C769.364,426.202 773.371,424.102 793.185,436.638C810.967,447.889 820.422,462.285 824.366,474.446C832.91,493.23 833.207,513.698 824.366,536.03C820.712,543.858 815.433,551.04 805.657,561.495C801.233,565.834 794.119,572.422 784.284,577.03C776.997,580.445 767.48,582.657 760.314,582.672L733.81,582.416L733.81,635.08C733.81,645.956 720.076,660.668 707.152,660.518L707.152,643.763ZM733.339,483.933L732.948,523.981L752.381,524.194C774.326,524.364 780.744,484.832 749.381,483.89L733.339,483.933Z" style="fill:rgb(71,195,192);"/>
            <path id="P1-bar" d="M695.652,643.876L695.652,660.519C682.29,658.86 673.068,650.399 669.219,636.01C666.715,628.278 669.32,602.208 669.202,583.142C669.088,564.666 665.642,554.858 650.66,551.229L650.868,534.02C680.291,525.933 662.591,482.844 669.544,448.108C673.273,429.477 691.843,424.563 706.57,424.99L702.837,441.844C677.008,441.503 690.498,468.987 684.81,513.395C684.646,524.257 679.128,535.15 669.869,542.981C680.221,549.813 684.461,560.214 685.622,573.322C688.967,611.073 676.039,641.177 695.652,643.876Z" style="fill:rgb(71,195,192);"/>
            <path id="P2-int" d="M834.43,466.582C836.543,471.735 838.824,477.272 840.066,483.72L850.878,483.815C862.315,484.603 866.242,495.238 866.636,503.417C867.01,511.159 858.797,523.691 849.364,523.551L840.013,523.232C838.622,529.422 836.725,535.371 834.533,540.024L848.655,540.2C867.825,540.42 884.649,520.825 884.183,502.67C883.944,493.379 882.611,486.503 876.359,479.771C870.999,473.998 865.735,467.619 850.678,466.797L834.43,466.582Z" style="fill:rgb(71,195,192);"/>
            <path id="P2-ext" d="M781.505,590.086C776.072,591.802 768.545,592.708 763.112,593.362L763.112,634.99C763.886,650.33 783.877,663.798 799.775,661.981C818.398,659.852 828.811,652.701 828.921,624.848L829.076,583.643L845.852,583.643C887.747,583.643 928.678,550.133 927.852,501.141C927.062,454.303 887.871,424.74 849.834,424.501L794.98,423.981C803.318,427.843 811.268,433.993 817.238,441.311L848.691,441.537C888.011,442.338 908.63,471.072 909.226,502.695C911.237,531.25 881.834,565.168 851.149,565.25L828.921,565.563L828.921,549.46C825.227,555.461 820.241,564.163 810.844,572.103L810.528,631.556C809.234,639.316 805.303,643.546 797.394,644.691C793.256,645.601 782.078,641.704 781.425,632.658L781.505,590.086Z" style="fill:rgb(71,195,192);"/>
            <path id="Z-point" d="M957.131,469.981L957.131,488.586L938.257,488.461C936.221,476.453 935.64,476.714 933.311,469.981L957.131,469.981Z" style="fill:rgb(71,195,192);"/>
            <path id="Z-Main" d="M1010.551,469.981L1089.852,469.981L967.678,643.751L1053.35,643.429C1066.807,643.521 1071.7,633.071 1071.465,618.958L1006.446,618.958L1019.417,600.547L1088.636,600.547L1087.852,633.014C1087.477,651.188 1069.433,660.335 1060.678,660.519L933.227,660.519L1055.627,488.374L1010.551,488.374L1010.551,469.981Z" style="fill:rgb(71,195,192);"/>
        </g>
    </g>
</svg>
